<?xml version="1.0" encoding="UTF-8" standalone="no"?>
<!DOCTYPE svg PUBLIC "-//W3C//DTD SVG 1.1//EN" "http://www.w3.org/Graphics/SVG/1.1/DTD/svg11.dtd">
<svg width="100%" height="100%" viewBox="0 0 800 300" version="1.1" xmlns="http://www.w3.org/2000/svg" xmlns:xlink="http://www.w3.org/1999/xlink" xml:space="preserve" xmlns:serif="http://www.serif.com/" style="fill-rule:evenodd;clip-rule:evenodd;stroke-linejoin:round;stroke-miterlimit:2;">
    <g transform="matrix(1.0009,0,0,1.00088,-0.714855,1.75997e-05)">
        <rect x="0.714" y="-0.02" width="799.283" height="299.737" style="fill:url(#_Linear1);"/>
    </g>
    <g transform="matrix(0.325102,0.424094,-0.793639,0.608388,365.086,39.8467)">
        <path d="M112.066,196.59L112.066,189.246L310.614,189.246L310.614,182.425L330.25,192.918L310.614,203.411L310.614,196.59L112.066,196.59Z" style="fill-opacity:0.53;"/>
    </g>
    <g transform="matrix(-0.342934,0.40981,-0.766908,-0.641757,744.275,285.74)">
        <path d="M112.066,196.59L112.066,189.246L310.614,189.246L310.614,182.425L330.25,192.918L310.614,203.411L310.614,196.59L112.066,196.59Z" style="fill-opacity:0.53;"/>
    </g>
    <defs>
        <linearGradient id="_Linear1" x1="0" y1="0" x2="1" y2="0" gradientUnits="userSpaceOnUse" gradientTransform="matrix(799.283,0,0,299.737,0.714214,149.848)"><stop offset="0" style="stop-color:rgb(162,162,227);stop-opacity:1"/><stop offset="1" style="stop-color:rgb(255,161,182);stop-opacity:1"/></linearGradient>
    </defs>
</svg>
