<?xml version="1.0" encoding="UTF-8" standalone="no"?>
<!DOCTYPE svg PUBLIC "-//W3C//DTD SVG 1.1//EN" "http://www.w3.org/Graphics/SVG/1.1/DTD/svg11.dtd">
<svg width="100%" height="100%" viewBox="0 0 1080 1080" version="1.1" xmlns="http://www.w3.org/2000/svg" xmlns:xlink="http://www.w3.org/1999/xlink" xml:space="preserve" xmlns:serif="http://www.serif.com/" style="fill-rule:evenodd;clip-rule:evenodd;stroke-linecap:round;stroke-linejoin:round;stroke-miterlimit:1.5;">
    <path d="M1076.19,208.991L1076.19,872.089C1076.19,986.155 983.587,1078.76 869.522,1078.76L203.341,1078.76C89.276,1078.76 -3.331,986.155 -3.331,872.089L-3.331,208.991C-3.331,94.925 89.276,2.319 203.341,2.319L869.522,2.319C983.587,2.319 1076.19,94.925 1076.19,208.991Z" style="fill:white;"/>
    <path d="M279.704,510.429L395.143,168.467" style="fill:none;stroke:rgb(132,84,176);stroke-width:42px;"/>
    <path d="M99.463,156.574L268.626,498.31" style="fill:none;stroke:rgb(132,84,176);stroke-width:42px;"/>
    <g transform="matrix(1,0,0,1,570.945,-20.794)">
        <path d="M109.36,183.612L222.921,523.917" style="fill:none;stroke:rgb(132,84,176);stroke-width:42px;"/>
    </g>
    <path d="M796.869,503.581L967.038,164.282" style="fill:none;stroke:rgb(132,84,176);stroke-width:42px;"/>
    <path d="M304.185,524.901L544.852,666.953" style="fill:none;stroke:rgb(132,84,176);stroke-width:42px;"/>
    <path d="M786.95,505.656L546.294,668.186" style="fill:none;stroke:rgb(132,84,176);stroke-width:42px;"/>
    <g transform="matrix(1.97354,0,0,1.97354,-251.495,-595.86)">
        <circle cx="269.118" cy="559.957" r="40.536" style="fill:rgb(218,39,0);"/>
    </g>
    <g transform="matrix(1.97354,0,0,1.97354,-138.335,-945.923)">
        <circle cx="269.118" cy="559.957" r="40.536" style="fill:rgb(218,39,0);"/>
    </g>
    <g transform="matrix(1.97354,0,0,1.97354,-427.218,-945.923)">
        <circle cx="269.118" cy="559.957" r="40.536" style="fill:rgb(218,39,0);"/>
    </g>
    <g transform="matrix(1.97354,0,0,1.97354,262.14,-599.632)">
        <circle cx="269.118" cy="559.957" r="40.536" style="fill:rgb(218,39,0);"/>
    </g>
    <g transform="matrix(1.97354,0,0,1.97354,439.43,-945.923)">
        <circle cx="269.118" cy="559.957" r="40.536" style="fill:rgb(218,39,0);"/>
    </g>
    <g transform="matrix(1.97354,0,0,1.97354,150.547,-945.923)">
        <circle cx="269.118" cy="559.957" r="40.536" style="fill:rgb(218,39,0);"/>
    </g>
    <g transform="matrix(1.50128,0,0,1.50128,-197.65,-371.827)">
        <g transform="matrix(399.062,0,0,399.062,642.287,952.397)">
        </g>
        <text x="342.115px" y="952.397px" style="font-family:'AppleMyungjo';font-size:399.062px;">Y</text>
    </g>
</svg>
